<svg width="100" height="145" viewBox="0 0 100 145" fill="none" xmlns="http://www.w3.org/2000/svg">
<path d="M0.811531 128.352C0.811531 126.976 1.09153 125.776 1.65153 124.752C2.21153 123.712 2.98753 122.912 3.97953 122.352C4.97153 121.776 6.10753 121.488 7.38753 121.488C9.03553 121.488 10.3955 121.904 11.4675 122.736C12.5555 123.552 13.2835 124.704 13.6515 126.192H10.0275C9.83553 125.616 9.50753 125.168 9.04353 124.848C8.59553 124.512 8.03553 124.344 7.36353 124.344C6.40353 124.344 5.64353 124.696 5.08353 125.4C4.52353 126.088 4.24353 127.072 4.24353 128.352C4.24353 129.616 4.52353 130.6 5.08353 131.304C5.64353 131.992 6.40353 132.336 7.36353 132.336C8.72353 132.336 9.61153 131.728 10.0275 130.512H13.6515C13.2835 131.952 12.5555 133.096 11.4675 133.944C10.3795 134.792 9.01953 135.216 7.38753 135.216C6.10753 135.216 4.97153 134.936 3.97953 134.376C2.98753 133.8 2.21153 133 1.65153 131.976C1.09153 130.936 0.811531 129.728 0.811531 128.352ZM19.473 117.24V135H16.113V117.24H19.473ZM21.9287 128.304C21.9287 126.96 22.1927 125.768 22.7207 124.728C23.2647 123.688 23.9927 122.888 24.9047 122.328C25.8327 121.768 26.8647 121.488 28.0007 121.488C28.9927 121.488 29.8567 121.688 30.5927 122.088C31.3447 122.488 31.9447 122.992 32.3927 123.6V121.704H35.7767V135H32.3927V133.056C31.9607 133.68 31.3607 134.2 30.5927 134.616C29.8407 135.016 28.9687 135.216 27.9767 135.216C26.8567 135.216 25.8327 134.928 24.9047 134.352C23.9927 133.776 23.2647 132.968 22.7207 131.928C22.1927 130.872 21.9287 129.664 21.9287 128.304ZM32.3927 128.352C32.3927 127.536 32.2327 126.84 31.9127 126.264C31.5927 125.672 31.1607 125.224 30.6167 124.92C30.0727 124.6 29.4887 124.44 28.8647 124.44C28.2407 124.44 27.6647 124.592 27.1367 124.896C26.6087 125.2 26.1767 125.648 25.8407 126.24C25.5207 126.816 25.3607 127.504 25.3607 128.304C25.3607 129.104 25.5207 129.808 25.8407 130.416C26.1767 131.008 26.6087 131.464 27.1367 131.784C27.6807 132.104 28.2567 132.264 28.8647 132.264C29.4887 132.264 30.0727 132.112 30.6167 131.808C31.1607 131.488 31.5927 131.04 31.9127 130.464C32.2327 129.872 32.3927 129.168 32.3927 128.352ZM31.9367 118.248L26.4167 120.768V118.368L31.9367 115.512V118.248ZM44.1463 135.216C43.0583 135.216 42.0823 135.024 41.2183 134.64C40.3543 134.24 39.6663 133.704 39.1543 133.032C38.6583 132.36 38.3863 131.616 38.3383 130.8H41.7223C41.7863 131.312 42.0343 131.736 42.4663 132.072C42.9143 132.408 43.4663 132.576 44.1223 132.576C44.7623 132.576 45.2583 132.448 45.6103 132.192C45.9783 131.936 46.1623 131.608 46.1623 131.208C46.1623 130.776 45.9383 130.456 45.4903 130.248C45.0583 130.024 44.3623 129.784 43.4023 129.528C42.4103 129.288 41.5943 129.04 40.9543 128.784C40.3303 128.528 39.7863 128.136 39.3223 127.608C38.8743 127.08 38.6503 126.368 38.6503 125.472C38.6503 124.736 38.8583 124.064 39.2743 123.456C39.7063 122.848 40.3143 122.368 41.0983 122.016C41.8983 121.664 42.8343 121.488 43.9063 121.488C45.4903 121.488 46.7543 121.888 47.6983 122.688C48.6423 123.472 49.1623 124.536 49.2583 125.88H46.0423C45.9943 125.352 45.7703 124.936 45.3703 124.632C44.9863 124.312 44.4663 124.152 43.8103 124.152C43.2023 124.152 42.7303 124.264 42.3943 124.488C42.0743 124.712 41.9143 125.024 41.9143 125.424C41.9143 125.872 42.1383 126.216 42.5863 126.456C43.0343 126.68 43.7303 126.912 44.6743 127.152C45.6343 127.392 46.4263 127.64 47.0503 127.896C47.6743 128.152 48.2103 128.552 48.6583 129.096C49.1223 129.624 49.3623 130.328 49.3783 131.208C49.3783 131.976 49.1623 132.664 48.7303 133.272C48.3143 133.88 47.7063 134.36 46.9063 134.712C46.1223 135.048 45.2023 135.216 44.1463 135.216ZM57.2245 135.216C56.1365 135.216 55.1605 135.024 54.2965 134.64C53.4325 134.24 52.7445 133.704 52.2325 133.032C51.7365 132.36 51.4645 131.616 51.4165 130.8H54.8005C54.8645 131.312 55.1125 131.736 55.5445 132.072C55.9925 132.408 56.5445 132.576 57.2005 132.576C57.8405 132.576 58.3365 132.448 58.6885 132.192C59.0565 131.936 59.2405 131.608 59.2405 131.208C59.2405 130.776 59.0165 130.456 58.5685 130.248C58.1365 130.024 57.4405 129.784 56.4805 129.528C55.4885 129.288 54.6725 129.04 54.0325 128.784C53.4085 128.528 52.8645 128.136 52.4005 127.608C51.9525 127.08 51.7285 126.368 51.7285 125.472C51.7285 124.736 51.9365 124.064 52.3525 123.456C52.7845 122.848 53.3925 122.368 54.1765 122.016C54.9765 121.664 55.9125 121.488 56.9845 121.488C58.5685 121.488 59.8325 121.888 60.7765 122.688C61.7205 123.472 62.2405 124.536 62.3365 125.88H59.1205C59.0725 125.352 58.8485 124.936 58.4485 124.632C58.0645 124.312 57.5445 124.152 56.8885 124.152C56.2805 124.152 55.8085 124.264 55.4725 124.488C55.1525 124.712 54.9925 125.024 54.9925 125.424C54.9925 125.872 55.2165 126.216 55.6645 126.456C56.1125 126.68 56.8085 126.912 57.7525 127.152C58.7125 127.392 59.5045 127.64 60.1285 127.896C60.7525 128.152 61.2885 128.552 61.7365 129.096C62.2005 129.624 62.4405 130.328 62.4565 131.208C62.4565 131.976 62.2405 132.664 61.8085 133.272C61.3925 133.88 60.7845 134.36 59.9845 134.712C59.2005 135.048 58.2805 135.216 57.2245 135.216ZM66.9186 120.12C66.3266 120.12 65.8306 119.936 65.4306 119.568C65.0466 119.184 64.8546 118.712 64.8546 118.152C64.8546 117.592 65.0466 117.128 65.4306 116.76C65.8306 116.376 66.3266 116.184 66.9186 116.184C67.5106 116.184 67.9986 116.376 68.3826 116.76C68.7826 117.128 68.9826 117.592 68.9826 118.152C68.9826 118.712 68.7826 119.184 68.3826 119.568C67.9986 119.936 67.5106 120.12 66.9186 120.12ZM68.5746 121.704V135H65.2146V121.704H68.5746ZM71.0303 128.352C71.0303 126.976 71.3103 125.776 71.8703 124.752C72.4303 123.712 73.2063 122.912 74.1983 122.352C75.1903 121.776 76.3263 121.488 77.6063 121.488C79.2543 121.488 80.6143 121.904 81.6863 122.736C82.7743 123.552 83.5023 124.704 83.8703 126.192H80.2463C80.0543 125.616 79.7263 125.168 79.2623 124.848C78.8143 124.512 78.2543 124.344 77.5823 124.344C76.6223 124.344 75.8623 124.696 75.3023 125.4C74.7423 126.088 74.4623 127.072 74.4623 128.352C74.4623 129.616 74.7423 130.6 75.3023 131.304C75.8623 131.992 76.6223 132.336 77.5823 132.336C78.9423 132.336 79.8303 131.728 80.2463 130.512H83.8703C83.5023 131.952 82.7743 133.096 81.6863 133.944C80.5983 134.792 79.2383 135.216 77.6063 135.216C76.3263 135.216 75.1903 134.936 74.1983 134.376C73.2063 133.8 72.4303 133 71.8703 131.976C71.3103 130.936 71.0303 129.728 71.0303 128.352ZM92.2358 135.216C90.9558 135.216 89.8038 134.936 88.7798 134.376C87.7558 133.8 86.9478 132.992 86.3558 131.952C85.7798 130.912 85.4918 129.712 85.4918 128.352C85.4918 126.992 85.7878 125.792 86.3798 124.752C86.9878 123.712 87.8118 122.912 88.8518 122.352C89.8918 121.776 91.0518 121.488 92.3318 121.488C93.6118 121.488 94.7718 121.776 95.8118 122.352C96.8518 122.912 97.6678 123.712 98.2598 124.752C98.8678 125.792 99.1718 126.992 99.1718 128.352C99.1718 129.712 98.8598 130.912 98.2358 131.952C97.6278 132.992 96.7958 133.8 95.7398 134.376C94.6998 134.936 93.5318 135.216 92.2358 135.216ZM92.2358 132.288C92.8438 132.288 93.4118 132.144 93.9398 131.856C94.4838 131.552 94.9158 131.104 95.2358 130.512C95.5558 129.92 95.7158 129.2 95.7158 128.352C95.7158 127.088 95.3798 126.12 94.7078 125.448C94.0518 124.76 93.2438 124.416 92.2838 124.416C91.3238 124.416 90.5158 124.76 89.8598 125.448C89.2198 126.12 88.8998 127.088 88.8998 128.352C88.8998 129.616 89.2118 130.592 89.8358 131.28C90.4758 131.952 91.2758 132.288 92.2358 132.288Z" fill="#47585B"/>
<g clip-path="url(#clip0)">
<path d="M87.1756 64.7451V61.377C87.1756 58.3083 84.7568 55.8007 81.7263 55.6431V28.1786H85.0784C86.2364 28.1786 87.1756 27.2397 87.1756 26.0814V17.0618C87.1756 16.0771 86.4905 15.225 85.5289 15.0135L49.9506 7.18796C49.6534 7.1226 49.3462 7.1226 49.0494 7.18796L13.4711 15.0138C12.5095 15.2253 11.8244 16.0775 11.8244 17.0621V26.0814C11.8244 27.2397 12.7636 28.1786 13.9216 28.1786H17.2737V55.6434C14.2432 55.8007 11.8244 58.3083 11.8244 61.3773V64.7455C9.08571 65.2387 7 67.6341 7 70.5126V75.7637C7 76.9221 7.93922 77.861 9.09725 77.861H13.9216H85.0784H89.9027C91.0608 77.861 92 76.9221 92 75.7637V70.5126C92 67.6341 89.9139 65.2387 87.1756 64.7451ZM16.0189 61.377C16.0189 60.5199 16.7162 59.8226 17.5733 59.8226H81.4267C82.2838 59.8226 82.9811 60.5199 82.9811 61.377V64.6469H16.0189V61.377ZM27.4384 55.6281H21.4682V28.79H27.4384V55.6281ZM50.6692 28.1786V55.6281H48.3311V28.1786H50.6692ZM60.8342 55.6281H54.8637V28.79H60.8342V55.6281ZM77.5318 55.6281H71.5616V28.79H77.5318V55.6281ZM44.1363 28.79V55.6281H38.1658V28.79H44.1363ZM11.1945 70.5126C11.1945 69.5912 11.9443 68.8418 12.8653 68.8418H13.9213H16.0185H82.9808H85.078H86.134C87.0554 68.8418 87.8048 69.5915 87.8048 70.5126V73.6665H82.9804H16.0189H11.1945V70.5126ZM67.3671 55.6281H65.0287V28.1786H67.3671V55.6281ZM16.0189 18.748L49.5 11.3835L82.9811 18.748V23.9838H16.0189V18.748ZM33.9713 28.1786V55.6281H31.6329V28.1786H33.9713Z" fill="#FFBA08"/>
</g>
<defs>
<clipPath id="clip0">
<rect width="85" height="85" fill="white" transform="translate(7)"/>
</clipPath>
</defs>
</svg>
